<?xml version="1.0" encoding="iso-8859-1"?>
<!-- Generator: Adobe Illustrator 16.0.0, SVG Export Plug-In . SVG Version: 6.00 Build 0)  -->
<!DOCTYPE svg PUBLIC "-//W3C//DTD SVG 1.1//EN" "http://www.w3.org/Graphics/SVG/1.1/DTD/svg11.dtd">
<svg version="1.1" id="Capa_1" xmlns="http://www.w3.org/2000/svg" xmlns:xlink="http://www.w3.org/1999/xlink" x="0px" y="0px"
	 width="106.048px" height="106.048px" viewBox="0 0 106.048 106.048" style="enable-background:new 0 0 106.048 106.048;"
	 xml:space="preserve">
<g>
	<path style="fill:#010002;" d="M84.838,0H21.209C9.543,0,0,9.543,0,21.209v63.629c0,11.666,9.543,21.21,21.209,21.21h63.628
		c11.667,0,21.21-9.544,21.21-21.21V21.209C106.048,9.543,96.505,0,84.838,0z M74.958,54.639v11.429
		c0,0.834-0.756,1.522-1.688,1.522H48.177c-0.921,0-1.685-0.684-1.685-1.522V54.639c0-0.838,0.769-1.521,1.685-1.521H73.26
		C74.202,53.117,74.958,53.8,74.958,54.639z M56.846,30.499c0.823,0.577,1.025,1.724,0.445,2.545l-5.725,8.23
		c-0.596,0.831-1.729,1.033-2.551,0.456l-1.713-1.194l7.772-11.257L56.846,30.499z M19.762,18.123
		c0.647-0.217,1.352-0.45,1.711-0.546c6.522-1.776,14.009-0.653,21.906,4.867c0.562,0.404,1.154,0.8,1.716,1.199
		c2.747,6.229,7.98,5.595,7.98,5.595c-2.242,3.197-4.49,6.392-6.727,9.598c-0.054-0.223-0.161-0.451-0.261-0.687
		c-0.052-0.106-0.117-0.228-0.184-0.35c-0.09-0.152-0.191-0.3-0.297-0.456c-0.055-0.067-0.101-0.142-0.166-0.217
		c-0.137-0.171-0.3-0.318-0.466-0.461c-0.324-0.277-0.72-0.492-1.193-0.588c-3.027-0.616-5.486,1.722-6.654,3.092
		c-0.249,0.318-1.007,1.336-0.784,1.022c0.036-0.06-7.842-5.504-7.848-5.525c-0.021-0.031,1.851-2.641,2.783-3.961
		c3.469-4.953-0.688-9.771-5.98-10.791c-1.24-0.233-2.434-0.143-3.674-0.088c-0.303,0.016-0.919,0.114-1.522,0.223
		C18.817,20.254,18.618,18.517,19.762,18.123z M19.263,62.893c-2.434-0.269-4.904-1.874-6.007-4.215L28.431,37l6.03,4.22
		L19.263,62.893z M57.114,87.728c0,0.833-0.745,1.517-1.672,1.517H30.356c-0.935,0-1.686-0.684-1.686-1.517V76.305
		c0-0.85,0.756-1.522,1.686-1.522h25.086c0.932,0,1.672,0.673,1.672,1.522V87.728z M92.792,87.732c0,0.834-0.756,1.512-1.688,1.512
		H66.021c-0.943,0-1.693-0.678-1.693-1.512V76.305c0-0.839,0.761-1.522,1.693-1.522h25.082c0.933,0,1.688,0.684,1.688,1.522V87.732z
		"/>
</g>
<g>
</g>
<g>
</g>
<g>
</g>
<g>
</g>
<g>
</g>
<g>
</g>
<g>
</g>
<g>
</g>
<g>
</g>
<g>
</g>
<g>
</g>
<g>
</g>
<g>
</g>
<g>
</g>
<g>
</g>
</svg>
