<?xml version="1.0" encoding="iso-8859-1"?>
<!-- Generator: Adobe Illustrator 16.0.0, SVG Export Plug-In . SVG Version: 6.00 Build 0)  -->
<!DOCTYPE svg PUBLIC "-//W3C//DTD SVG 1.1//EN" "http://www.w3.org/Graphics/SVG/1.1/DTD/svg11.dtd">
<svg version="1.1" id="Capa_1" xmlns="http://www.w3.org/2000/svg" xmlns:xlink="http://www.w3.org/1999/xlink" x="0px" y="0px"
	 width="513.256px" height="513.255px" viewBox="0 0 513.256 513.255" style="enable-background:new 0 0 513.256 513.255;"
	 xml:space="preserve">
<g>
	<g>
		<path d="M498.404,189.023l-106.62-39.122c-5.092-1.876-10.664-1.851-15.732,0.044l-104.659,39.122
			c-11.726,4.377-17.672,17.436-13.292,29.153c0.679,1.811,1.613,3.444,2.665,4.966l-37.873-16.01
			c-5.33-2.24-11.344-2.375-16.765-0.355L31.063,272.339c-8.854,3.314-14.715,11.771-14.715,21.222V435.71
			c0,12.518,10.142,22.659,22.654,22.659c12.515,0,22.656-10.142,22.656-22.659V309.265l151.911-56.852l142.763,60.366
			l-44.216,19.766c-8.153,3.645-13.398,11.747-13.398,20.685v82.48c0,12.518,10.142,22.659,22.653,22.659
			c12.518,0,22.659-10.142,22.659-22.659v-67.784l60.476-27.036l73.885,33.033c11.43,5.105,24.819-0.005,29.935-11.435
			c5.102-11.425-0.009-24.819-11.435-29.93c0,0-96.454-50.315-102.811-53.009l-110.997-46.939c1.396-0.233,2.8-0.588,4.167-1.106
			l96.801-36.187l98.745,36.23c11.738,4.306,24.755-1.713,29.067-13.458C516.172,206.347,510.146,193.326,498.404,189.023z"/>
		<path d="M238.933,414.891c5.01,0,9.061-4.056,9.061-9.068V357.5c0-5.012-4.051-9.067-9.061-9.067h-84.577
			c-5.015,0-9.062,4.056-9.062,9.067v48.323c0,5.013,4.046,9.068,9.062,9.068H238.933z"/>
		<path d="M421.691,431.062c5.013,0,9.059-4.051,9.059-9.059v-19.765c0-5.018-4.046-9.063-9.059-9.063H381.27
			c-5.008,0-9.059,4.046-9.059,9.063v19.765c0,5.008,4.051,9.059,9.059,9.059H421.691z"/>
		<path d="M371.017,227.79c-5.013,0-9.064,4.051-9.064,9.061v19.765c0,5.012,4.052,9.064,9.064,9.064h40.412
			c5.012,0,9.067-4.052,9.067-9.064v-19.765c0-5.01-4.056-9.061-9.067-9.061H371.017z"/>
		<path d="M473.879,141.554c-2.782,2.203-6.361,6.233-7.631,9.554l-3.935,10.211c-1.265,3.307,0.28,4.732,3.271,2.81
			c15.042-9.617,53.592-41.687,26.42-105.446c-1.399-3.271-5.301-4.751-8.456-3.146c-17.735,9.105-68.083,41.339-38.387,102.058
			c1.563,3.197,4.172,3.071,5.643-0.157l2.529-5.526c1.47-3.215,0.905-8.146-0.551-11.399c-1.521-3.399-3.062-8.274-3.29-14.428
			c-0.159-3.554,1.409-3.778,3.281-0.771c0.76,1.232,1.643,2.49,2.548,3.624c2.245,2.766,5.969,1.116,7.141-2.219l4.121-11.745
			c1.167-3.334,0.443-8.4-1.204-11.537c-1.232-2.345-2.521-5.267-3.421-8.417c-0.943-3.428,0.131-3.67,2.086-0.726
			c0.873,1.304,1.867,2.6,2.927,3.598c2.58,2.42,6.767-1.743,8.135-5.031l3.775-9.117c1.349-3.263,2.012-3.097,1.433,0.408
			l-1.521,9.343c-0.569,3.496,1.895,6.354,5.302,5.337c0.714-0.205,1.433-0.471,2.128-0.789c3.234-1.447,3.743-1.431,1.946,1.622
			c-1.53,2.609-3.715,5.675-6.632,8.287c-2.637,2.361-6.17,6.368-7.285,9.729l-3.118,9.481c-1.101,3.372,0.836,5.554,4.168,4.375
			c1.867-0.677,3.977-1.557,6.077-2.716c3.122-1.685,4.116-0.968,2.17,1.993C481.49,134.007,478.303,138.049,473.879,141.554z"/>
		<path d="M62.648,245.441l32.368-12.113c-2.837-2.329-6.009-4.271-8.991-5.4c-6.858-2.621-15.812-7.29-24.712-15.534
			c-5.146-4.73-3.316-7.239,3.507-5.657c2.784,0.653,5.773,1.197,8.627,1.515c6.977,0.707,9.89-6.776,6.851-13.059l-10.62-22.12
			c-3.039-6.291-11.112-12.326-17.772-14.419c-4.991-1.559-10.872-3.825-16.51-6.987c-6.093-3.441-4.958-5.283,1.893-3.916
			c3.029,0.619,6.219,1.034,9.101,0.952c6.968-0.226,7.003-11.882,4.329-18.351l-7.43-17.968c-2.674-6.461-1.521-7.115,2.564-1.423
			l10.902,15.133c4.086,5.683,11.516,6.224,14.837,0.044c0.695-1.286,1.339-2.653,1.883-4.07c2.492-6.541,3.225-7.201,4.982-0.443
			c1.496,5.773,2.73,13.077,2.294,20.806c-0.39,6.982,0.282,17.49,3.425,23.728l8.844,17.562c3.164,6.242,8.919,6.597,11.929,0.287
			c1.666-3.54,3.388-7.717,4.711-12.251c1.983-6.704,4.366-7.104,5.79-0.252c1.521,7.348,2.7,17.406,1.423,28.483
			c-0.798,6.94-0.166,17.572,2.693,23.968l0.08,0.173l20.735-7.757c2.336-44.386-11.728-116.17-113.795-157.241
			c-6.497-2.616-13.999,0.763-16.15,7.416C-0.264,99.789-21.333,194.423,62.648,245.441z"/>
	</g>
</g>
<g>
</g>
<g>
</g>
<g>
</g>
<g>
</g>
<g>
</g>
<g>
</g>
<g>
</g>
<g>
</g>
<g>
</g>
<g>
</g>
<g>
</g>
<g>
</g>
<g>
</g>
<g>
</g>
<g>
</g>
</svg>
